<?xml version="1.0" encoding="UTF-8"?>
<svg xmlns="http://www.w3.org/2000/svg" xmlns:xlink="http://www.w3.org/1999/xlink" xmlns:svgjs="http://svgjs.com/svgjs" version="1.1" width="512" height="512" x="0" y="0" viewBox="0 0 64 64" style="enable-background:new 0 0 512 512" xml:space="preserve" class="">
  <g>
    <path xmlns="http://www.w3.org/2000/svg" d="m28.47467 51.64723-1.94531-1.88086v-3.5332l1.94482-1.87988a2.49514 2.49514 0 0 0 .42774-3.04785l-1.21924-2.11133a2.4975 2.4975 0 0 0 -2.85254-1.1543l-2.60156.74512-3.05858-1.76563-.65625-2.624a2.49487 2.49487 0 0 0 -2.42529-1.89551h-2.43846a2.49694 2.49694 0 0 0 -2.42529 1.89356l-.65625 2.626-3.05863 1.76558-2.60254-.74512a2.49632 2.49632 0 0 0 -2.852 1.1543l-1.22029 2.1123a2.49607 2.49607 0 0 0 .42823 3.0459l1.94531 1.88086v3.5332l-1.94481 1.87989a2.49676 2.49676 0 0 0 -.42773 3.04785l1.21924 2.11133a2.49929 2.49929 0 0 0 2.85254 1.15429l2.60205-.74512 3.05859 1.76563.65625 2.626a2.49694 2.49694 0 0 0 2.42533 1.89353h2.43848a2.4943 2.4943 0 0 0 2.42481-1.89355l.65673-2.626 3.0586-1.76563 2.602.74512a2.49811 2.49811 0 0 0 2.85205-1.15429l1.21924-2.11133a2.49413 2.49413 0 0 0 -.42724-3.04686zm-13.60547 2.85254a6.5 6.5 0 1 1 6.5-6.5 6.50753 6.50753 0 0 1 -6.5 6.5z" fill="#02916b" data-original="#3e3ef4" class=""/>
    <circle xmlns="http://www.w3.org/2000/svg" cx="14.869" cy="48" fill="#02916b" r="3.5" data-original="#3e3ef4" class=""/>
    <path xmlns="http://www.w3.org/2000/svg" d="m59 16.49977h-12.419a11.37529 11.37529 0 0 0 .918-4.64746 11.5 11.5 0 0 0 -22.999.14746 11.37364 11.37364 0 0 0 .91943 4.5h-12.41943a4.50492 4.50492 0 0 0 -4.5 4.5v10a1.5 1.5 0 1 0 3 0v-10a1.50164 1.50164 0 0 1 1.5-1.5h15.01367a1.50075 1.50075 0 0 0 1.19824-2.40185 8.487 8.487 0 0 1 7.02735-13.59473 8.57547 8.57547 0 0 1 8.25974 8.38721 8.4114 8.4114 0 0 1 -1.71093 5.20752 1.50079 1.50079 0 0 0 1.19824 2.40185h15.01369a1.50164 1.50164 0 0 1 1.5 1.5v8.41943a11.37367 11.37367 0 0 0 -4.5-.91943 11.5 11.5 0 0 0 -.14746 22.999 11.286 11.286 0 0 0 4.64746-.918v8.41894a1.50164 1.50164 0 0 1 -1.5 1.5h-37a1.5 1.5 0 0 0 0 3h37a4.50491 4.50491 0 0 0 4.5-4.5v-11.01361a1.50079 1.50079 0 0 0 -2.40186-1.19824 8.248 8.248 0 0 1 -5.20752 1.71093 8.49986 8.49986 0 0 1 .10938-16.99902 8.41756 8.41756 0 0 1 5.09814 1.71192 1.50073 1.50073 0 0 0 2.40186-1.19825v-11.01367a4.50492 4.50492 0 0 0 -4.5-4.5z" fill="#000000" data-original="#000000" class=""/>
    <path xmlns="http://www.w3.org/2000/svg" d="m35 44.49977h-3a1.5 1.5 0 0 0 0 3h3a4.50491 4.50491 0 0 0 4.5-4.5v-14a4.50492 4.50492 0 0 0 -4.5-4.5h-14a4.50492 4.50492 0 0 0 -4.5 4.5v1a1.5 1.5 0 0 0 3 0v-1a1.50164 1.50164 0 0 1 1.5-1.5h14a1.50164 1.50164 0 0 1 1.5 1.5v14a1.50164 1.50164 0 0 1 -1.5 1.5z" fill="#000000" data-original="#000000" class=""/>
  </g>
</svg>
