<?xml version="1.0" encoding="UTF-8"?>
<!-- Generator: Adobe Illustrator 26.2.1, SVG Export Plug-In . SVG Version: 6.00 Build 0)  -->
<svg xmlns="http://www.w3.org/2000/svg" xmlns:xlink="http://www.w3.org/1999/xlink" version="1.1" id="Layer_1" x="0px" y="0px" viewBox="0 0 30 30" style="enable-background:new 0 0 30 30;" xml:space="preserve" width="512" height="512">
<style type="text/css">
	.st0{clip-path:url(#SVGID_00000091000642924466458450000006029930310995712667_);}
	.st1{fill:#02916B;}
</style>
<g>
	<g>
		<defs>
			<rect id="SVGID_1_" x="0.95" y="1.59" width="27.05" height="27.05"/>
		</defs>
		<clipPath id="SVGID_00000003790630331569510240000006841129515993468550_">
			<use xlink:href="#SVGID_1_" style="overflow:visible;"/>
		</clipPath>
		<path style="clip-path:url(#SVGID_00000003790630331569510240000006841129515993468550_);" d="M18.92,26.44    c-5.37,2.11-11.48,0.16-14.63-4.66c-3.16-4.82-2.5-11.2,1.58-15.28l0.72-0.72v2.08c0,0.35,0.29,0.64,0.64,0.64    c0.35,0,0.64-0.29,0.64-0.64V4.24c0-0.35-0.29-0.64-0.64-0.64H3.6c-0.35,0-0.64,0.29-0.64,0.64c0,0.35,0.29,0.64,0.64,0.64h2.08    L4.96,5.6c-4.51,4.51-5.23,11.55-1.74,16.88c3.49,5.33,10.24,7.48,16.17,5.15c0.16-0.06,0.28-0.18,0.35-0.34    c0.07-0.16,0.07-0.33,0.01-0.49c-0.06-0.16-0.18-0.29-0.34-0.35C19.25,26.39,19.07,26.38,18.92,26.44L18.92,26.44z M18.92,26.44"/>
		<path style="clip-path:url(#SVGID_00000003790630331569510240000006841129515993468550_);" d="M25.35,25.35h-2.08l0.72-0.72    c4.51-4.51,5.23-11.55,1.74-16.88C22.24,2.42,15.49,0.27,9.56,2.59C9.23,2.72,9.07,3.1,9.2,3.43c0.13,0.33,0.5,0.49,0.83,0.36    c5.37-2.11,11.47-0.16,14.63,4.66c3.16,4.82,2.5,11.2-1.58,15.28l-0.72,0.72v-2.08c0-0.35-0.29-0.64-0.64-0.64    c-0.35,0-0.64,0.29-0.64,0.64v3.62c0,0.35,0.29,0.64,0.64,0.64h3.62c0.35,0,0.64-0.29,0.64-0.64C26,25.63,25.71,25.35,25.35,25.35    L25.35,25.35z M25.35,25.35"/>
	</g>
	<path class="st1" d="M15.54,15.12c0,0.59-0.48,1.07-1.07,1.07c-0.59,0-1.07-0.48-1.07-1.07c0-0.59,0.48-1.07,1.07-1.07   C15.06,14.05,15.54,14.53,15.54,15.12L15.54,15.12z M15.54,15.12"/>
	<path class="st1" d="M21.26,13.21c-0.09-0.31-0.39-0.51-0.71-0.46c-0.43,0.07-0.86-0.14-1.08-0.52c-0.22-0.38-0.18-0.85,0.09-1.2   c0.2-0.25,0.18-0.61-0.04-0.84c-0.9-0.92-2.04-1.58-3.3-1.9c-0.31-0.08-0.63,0.09-0.75,0.38c-0.16,0.41-0.55,0.67-0.99,0.67   c-0.44,0-0.83-0.27-0.99-0.67c-0.12-0.3-0.44-0.46-0.75-0.38c-1.25,0.32-2.39,0.97-3.3,1.9c-0.22,0.23-0.24,0.59-0.04,0.84   c0.27,0.34,0.31,0.82,0.09,1.19c-0.22,0.38-0.65,0.59-1.08,0.52c-0.32-0.05-0.62,0.15-0.71,0.46c-0.36,1.24-0.36,2.56,0,3.8   c0.09,0.31,0.39,0.51,0.71,0.46c0.43-0.07,0.86,0.14,1.08,0.52c0.22,0.38,0.18,0.85-0.09,1.2c-0.2,0.25-0.18,0.61,0.04,0.84   c0.9,0.92,2.04,1.58,3.3,1.9c0.31,0.08,0.63-0.09,0.75-0.38c0.16-0.41,0.55-0.67,0.99-0.67c0.44,0,0.83,0.27,0.99,0.67   c0.12,0.3,0.44,0.46,0.75,0.38c1.25-0.32,2.39-0.98,3.3-1.9c0.22-0.23,0.24-0.59,0.04-0.84c-0.27-0.34-0.31-0.82-0.09-1.2   c0.22-0.38,0.65-0.58,1.08-0.52c0.32,0.05,0.62-0.15,0.71-0.46C21.61,15.77,21.61,14.46,21.26,13.21L21.26,13.21z M14.48,17.46   c-0.95,0-1.81-0.57-2.17-1.45c-0.36-0.88-0.16-1.89,0.51-2.56c0.67-0.67,1.68-0.87,2.56-0.51c0.88,0.36,1.45,1.22,1.45,2.17   C16.82,16.41,15.77,17.46,14.48,17.46L14.48,17.46z M14.48,17.46"/>
</g>
</svg>
