<?xml version="1.0" encoding="UTF-8"?>
<!-- Generator: Adobe Illustrator 26.2.1, SVG Export Plug-In . SVG Version: 6.00 Build 0)  -->
<svg xmlns="http://www.w3.org/2000/svg" xmlns:xlink="http://www.w3.org/1999/xlink" version="1.1" id="Layer_1" x="0px" y="0px" viewBox="0 0 30 30" style="enable-background:new 0 0 30 30;" xml:space="preserve" width="512" height="512">
<style type="text/css">
	.st0{clip-path:url(#SVGID_00000107573490193778263160000013128156527269214102_);fill:#02916B;}
</style>
<g>
	<g>
		<defs>
			<rect id="SVGID_1_" y="0.45" width="29.51" height="29.59"/>
		</defs>
		<clipPath id="SVGID_00000074438081108929455450000016177553849213105027_">
			<use xlink:href="#SVGID_1_" style="overflow:visible;"/>
		</clipPath>
		<path style="clip-path:url(#SVGID_00000074438081108929455450000016177553849213105027_);fill:#02916B;" d="M24.36,21.76    c0,0.91-0.73,1.64-1.64,1.64c-0.91,0-1.64-0.73-1.64-1.64s0.73-1.64,1.64-1.64C23.63,20.12,24.36,20.86,24.36,21.76L24.36,21.76z     M24.36,21.76"/>
		<path style="clip-path:url(#SVGID_00000074438081108929455450000016177553849213105027_);fill:#02916B;" d="M22.72,16.38    c-2.75,0-5.22,1.65-6.28,4.19c-1.05,2.54-0.47,5.46,1.47,7.4c1.94,1.94,4.86,2.52,7.4,1.47c2.54-1.05,4.19-3.53,4.19-6.28    C29.51,19.42,26.47,16.38,22.72,16.38L22.72,16.38z M25.53,27.62c-0.39,0-0.7-0.31-0.7-0.7c0-1.16-0.94-2.11-2.11-2.11    c-1.16,0-2.11,0.94-2.11,2.11c0,0.39-0.31,0.7-0.7,0.7c-0.39,0-0.7-0.31-0.7-0.7c0-1.15,0.56-2.22,1.5-2.87    c-0.95-0.84-1.28-2.18-0.84-3.36c0.45-1.18,1.58-1.97,2.85-1.97s2.4,0.78,2.85,1.97c0.45,1.18,0.12,2.52-0.84,3.36    c0.94,0.66,1.5,1.73,1.5,2.87C26.23,27.3,25.92,27.62,25.53,27.62L25.53,27.62z M25.53,27.62"/>
	</g>
	<path d="M27.41,0.45H2.11C0.94,0.45,0,1.39,0,2.56v21.55c0,1.16,0.94,2.11,2.11,2.11h12.65c0.39,0,0.7-0.31,0.7-0.7   s-0.31-0.7-0.7-0.7H2.11c-0.39,0-0.7-0.31-0.7-0.7V7.01l13.02,6.94c0.21,0.11,0.45,0.11,0.66,0l13.02-6.94v10.07   c0,0.39,0.31,0.7,0.7,0.7s0.7-0.31,0.7-0.7V2.56C29.51,1.39,28.57,0.45,27.41,0.45L27.41,0.45z M14.76,12.53L1.41,5.41V2.56   c0-0.39,0.31-0.7,0.7-0.7h25.3c0.39,0,0.7,0.31,0.7,0.7v2.86L14.76,12.53z M14.76,12.53"/>
	<path d="M4.45,21.53h7.96c0.39,0,0.7-0.31,0.7-0.7s-0.31-0.7-0.7-0.7H4.45c-0.39,0-0.7,0.31-0.7,0.7S4.06,21.53,4.45,21.53   L4.45,21.53z M4.45,21.53"/>
	<path d="M4.45,17.78h6.56c0.39,0,0.7-0.31,0.7-0.7s-0.31-0.7-0.7-0.7H4.45c-0.39,0-0.7,0.31-0.7,0.7S4.06,17.78,4.45,17.78   L4.45,17.78z M4.45,17.78"/>
</g>
</svg>
