<?xml version="1.0" encoding="UTF-8"?>
<!-- Generator: Adobe Illustrator 26.2.1, SVG Export Plug-In . SVG Version: 6.00 Build 0)  -->
<svg xmlns="http://www.w3.org/2000/svg" xmlns:xlink="http://www.w3.org/1999/xlink" version="1.1" id="Layer_1" x="0px" y="0px" viewBox="0 0 30 30" style="enable-background:new 0 0 30 30;" xml:space="preserve" width="512" height="512">
<style type="text/css">
	.st0{clip-path:url(#SVGID_00000182492174970355783280000011764474151117149591_);fill:#02916B;}
	.st1{clip-path:url(#SVGID_00000182492174970355783280000011764474151117149591_);}
</style>
<g>
	<g>
		<defs>
			<rect id="SVGID_1_" width="29.96" height="30.04"/>
		</defs>
		<clipPath id="SVGID_00000176752579860724772350000007963321920359417270_">
			<use xlink:href="#SVGID_1_" style="overflow:visible;"/>
		</clipPath>
		<path style="clip-path:url(#SVGID_00000176752579860724772350000007963321920359417270_);fill:#02916B;" d="M23.06,16.17    c-2.79,0-5.3,1.68-6.37,4.26c-1.07,2.58-0.48,5.54,1.49,7.51c1.97,1.97,4.94,2.56,7.51,1.49c2.58-1.07,4.26-3.58,4.26-6.37    C29.96,19.26,26.87,16.17,23.06,16.17L23.06,16.17z M27.43,21.13l-3.8,4.76c-0.13,0.16-0.32,0.26-0.52,0.27    c-0.2,0.01-0.4-0.06-0.54-0.21l-2.85-2.85c-0.28-0.28-0.28-0.73,0-1.01c0.28-0.28,0.73-0.28,1.01,0l2.29,2.29l3.31-4.13    c0.25-0.3,0.69-0.35,1-0.11C27.62,20.38,27.67,20.83,27.43,21.13L27.43,21.13z M27.43,21.13"/>
		<path style="clip-path:url(#SVGID_00000176752579860724772350000007963321920359417270_);" d="M26.23,6.69    c-0.49-0.85-1.5-1.26-2.44-0.99l-2.68,0.77L17.4,4.32l-0.68-2.7C16.49,0.67,15.63,0,14.65,0H12.8c-0.98,0-1.84,0.67-2.08,1.62    l-0.68,2.7L6.33,6.47L3.65,5.7C2.71,5.43,1.7,5.84,1.21,6.69l-0.92,1.6c-0.49,0.85-0.34,1.93,0.37,2.61l2,1.94v4.29l-2,1.94    c-0.71,0.68-0.86,1.76-0.37,2.61l0.92,1.6c0.49,0.85,1.5,1.26,2.44,0.99l2.68-0.77l3.72,2.15l0.68,2.7    c0.24,0.95,1.09,1.62,2.08,1.62h1.85c0.98,0,1.84-0.67,2.08-1.62l0.04-0.17c0.05-0.18,0.02-0.38-0.08-0.54    c-0.1-0.16-0.26-0.28-0.44-0.33c-0.18-0.05-0.38-0.02-0.54,0.08c-0.16,0.1-0.28,0.26-0.32,0.44l-0.04,0.17    c-0.08,0.32-0.36,0.54-0.69,0.54H12.8c-0.33,0-0.61-0.22-0.69-0.54l-0.75-3c-0.05-0.19-0.17-0.35-0.34-0.44l-4.24-2.45    c-0.17-0.1-0.37-0.12-0.55-0.07l-2.97,0.85c-0.31,0.09-0.65-0.04-0.81-0.33l-0.92-1.6c-0.16-0.28-0.11-0.64,0.12-0.87l2.22-2.15    c0.14-0.13,0.22-0.32,0.22-0.51v-4.89c0-0.19-0.08-0.38-0.22-0.51L1.64,9.87C1.41,9.65,1.36,9.29,1.52,9l0.92-1.6    c0.16-0.28,0.5-0.42,0.81-0.33l2.97,0.85c0.19,0.05,0.39,0.03,0.55-0.07l4.24-2.45c0.17-0.1,0.29-0.26,0.34-0.44l0.75-3    c0.08-0.32,0.36-0.54,0.69-0.54h1.85c0.33,0,0.61,0.22,0.69,0.54l0.75,3c0.05,0.19,0.17,0.35,0.34,0.44l4.24,2.45    c0.17,0.1,0.37,0.12,0.55,0.07l2.97-0.85C24.5,6.98,24.84,7.12,25,7.4L25.92,9c0.16,0.28,0.11,0.64-0.12,0.87l-2.22,2.15    c-0.14,0.13-0.22,0.32-0.22,0.51v2.04c0,0.39,0.32,0.71,0.71,0.71c0.39,0,0.71-0.32,0.71-0.71v-1.74l2-1.94    c0.71-0.68,0.86-1.76,0.37-2.61L26.23,6.69z M26.23,6.69"/>
	</g>
	<path d="M13.72,7.61C11.67,7.6,9.71,8.44,8.3,9.93c-1.4,1.5-2.12,3.51-1.98,5.56c0.14,2.05,1.13,3.94,2.73,5.23   c1.6,1.29,3.66,1.85,5.69,1.55c0.39-0.05,0.66-0.41,0.61-0.8c-0.05-0.39-0.41-0.66-0.8-0.61c-2.45,0.34-4.86-0.87-6.04-3.05   c-1.18-2.17-0.89-4.85,0.73-6.73c1.62-1.87,4.23-2.54,6.55-1.68c2.32,0.86,3.87,3.07,3.88,5.54c0,0.39,0.32,0.71,0.71,0.71h0   c0.39,0,0.71-0.32,0.71-0.72C21.06,10.89,17.77,7.62,13.72,7.61L13.72,7.61z M13.72,7.61"/>
	<path d="M13.72,10.46c-0.39,0-0.71,0.32-0.71,0.71c0,0.39,0.32,0.71,0.71,0.71c1.34,0,2.53,0.87,2.94,2.14l-0.87-0.22   c-0.38-0.09-0.77,0.14-0.86,0.52c-0.1,0.38,0.13,0.77,0.52,0.86l1.9,0.48c0.21,0.05,0.44,0.01,0.61-0.13   c0.17-0.14,0.27-0.34,0.27-0.56C18.24,12.49,16.22,10.47,13.72,10.46L13.72,10.46z M13.72,10.46"/>
	<path d="M12.51,15.63c0.05-0.18,0.02-0.38-0.08-0.54c-0.1-0.16-0.26-0.28-0.44-0.33l-1.9-0.48c-0.21-0.05-0.44-0.01-0.61,0.13   c-0.17,0.13-0.27,0.34-0.27,0.56c0,2.49,2.02,4.52,4.52,4.52c0.39,0,0.71-0.32,0.71-0.71c0-0.39-0.32-0.71-0.71-0.71   c-1.34,0-2.53-0.87-2.94-2.14l0.87,0.22C12.03,16.24,12.42,16.01,12.51,15.63L12.51,15.63z M12.51,15.63"/>
</g>
</svg>
